<svg version="1.1" id="Modo_de_aislamiento" xmlns="http://www.w3.org/2000/svg" x="0" y="0" viewBox="0 0 111.2 27.6" xml:space="preserve"><style>.st0{fill:#fff}</style><path class="st0" d="M30.5 26.9c-.3-.2-.7-.4-1.1-.6V11.6L23.1 9l-2.7 1.1v13.3c-.4-.1-.8-.1-1.2-.1V10.7l-2.4.9v11.5h-1.1V10.8l.7-.3 2.3-.9.4-.2h.1l1.1-.4 2.3-.9.4-.2V3l-7.5-3-3.3 1.3v14.1l.4.2.8.3v7.3h-.1l-.8.1h-.3v-6.6l-1.3-.5L8.1 15l-.2-.1-1.9.8v8.9l-.5.1-.6.2h-.1v-8.8l-1.1.6v8.8l-.3.1-.2.1-.2.1-.6.2c-.6.3-1.1.5-1.5.8l-1.2.8 1.3-.5c.4-.2 1-.4 1.6-.6s1.3-.4 2-.6l.6-.2.6-.1 1.2-.3c.4-.1.9-.2 1.3-.2s.9-.2 1.4-.2l1.5-.2c.5 0 1-.1 1.5-.1l.8-.1H18l.8.1c.5 0 1 .1 1.5.1l1.5.2c.5 0 .9.1 1.4.2s.9.1 1.3.2l1.2.3.6.1.6.2c.8.2 1.4.4 2 .6s1.1.4 1.5.6c.8.4 1.3.5 1.3.5l-1.2-.7z"/><path class="st0" d="M11 14.9v-13L8.1 3v10.7l.3.1zm30.7.7l3.7 5.1h-2.2l-3.4-4.9h-.3v4.9h-1.8v-12h2.1c1.2-.1 2.4.2 3.5.9.8.6 1.2 1.6 1.2 2.6 0 .8-.2 1.6-.7 2.2-.6.6-1.3 1-2.1 1.2zm-2.2-1.4h.6c1.7 0 2.6-.7 2.6-2s-.8-1.9-2.5-1.9h-.7v3.9zm14.1 3.1h-5.4c0 .6.2 1.1.6 1.5.4.4.9.6 1.4.5.4 0 .8-.1 1.1-.3.4-.3.7-.7 1-1.2l1.5.8c-.2.4-.5.7-.7 1s-.5.5-.8.7-.6.3-.9.4c-.4.1-.7.1-1.1.1-1 0-2-.4-2.7-1.1-.7-.8-1.1-1.8-1-2.9 0-1.1.3-2.1 1-2.9.7-.7 1.7-1.1 2.7-1.1s2 .3 2.7 1.1 1.1 1.9 1 2.9l-.4.5zm-1.8-1.4c-.1-.8-.9-1.4-1.8-1.4-.2 0-.4 0-.6.1-.2.1-.4.2-.5.3-.2.1-.3.3-.4.5-.1.2-.2.4-.2.6l3.5-.1zm9.3-2.8h1.8v7.6h-1.8v-.8c-1.3 1.3-3.4 1.3-4.8 0l-.2-.2c-.7-.8-1-1.8-1-2.9 0-1 .3-2.1 1-2.9.6-.7 1.6-1.2 2.5-1.1.9 0 1.8.4 2.4 1.1l.1-.8zm-4.2 3.8c0 .6.2 1.3.6 1.8.4.5.9.7 1.5.7s1.2-.2 1.6-.7c.4-.5.6-1.1.6-1.8 0-.6-.2-1.3-.6-1.8-.4-.4-1-.7-1.6-.7s-1.1.2-1.5.7c-.3.5-.6 1.1-.6 1.8zm10-9.4v13.2h-1.8V7.5h1.8zm20.3 7.2v6h-1.8v-6h-.8v-1.6h.8v-2.8h1.8v2.8h1.4v1.6h-1.4zm8-1.6H97v7.6h-1.8v-.8c-1.3 1.3-3.5 1.3-4.8 0-.1 0-.1-.1-.1-.2-.7-.8-1-1.8-1-2.9 0-1 .3-2.1 1-2.9.6-.7 1.6-1.2 2.6-1.1.9 0 1.8.4 2.4 1.1l-.1-.8zm-4.1 3.8c0 .6.2 1.3.6 1.8s.9.7 1.5.7 1.2-.2 1.6-.7.6-1.1.6-1.8c0-.6-.2-1.3-.6-1.8-.4-.4-1-.7-1.6-.7s-1.1.2-1.5.7c-.4.5-.6 1.2-.6 1.8zm9.9-2.2v6h-1.8v-6h-.7v-1.6h.8v-2.8h1.8v2.8h1.4v1.6H101zm9.9 2.6h-5.7c0 .6.2 1.1.6 1.5.4.4.9.6 1.4.5.4 0 .8-.1 1.1-.3.4-.3.7-.7 1-1.2l1.8.8c-.2.4-.7.7-1 1-.2.3-.5.5-.8.7s-.6.3-.9.4c-.4.1-.7.1-1.1.1-1 0-2-.3-2.7-1.1s-1.1-1.8-1-2.9c0-1.1.3-2.1 1-2.9 1.5-1.4 3.8-1.4 5.3 0 .7.8 1.4 1.9 1.3 2.9l-.3.5zm-2.1-1.4c-.1-.9-.9-1.5-1.8-1.4-.2 0-.4 0-.6.1s-.4.2-.5.3c-.2.1-.3.3-.4.5s-.2.4-.2.6l3.5-.1z"/><path d="M76.3 14.9h-4.7v4.4h5.3v1.3H70V8.4h6.6v1.3h-5v3.8h4.7v1.4z" fill="#fff" stroke="#fff" stroke-width=".25" stroke-miterlimit="10"/><path d="M78.5 19.3c.4.3 1.2.6 1.9.6 1 0 1.5-.5 1.5-1.2s-.4-1-1.4-1.4c-1.4-.5-2-1.3-2-2.2 0-1.2 1-2.3 2.7-2.3.8 0 1.5.2 1.9.5l-.4 1c-.3-.2-.9-.4-1.6-.4-.8 0-1.3.5-1.3 1.1 0 .6.5.9 1.5 1.3 1.3.5 2 1.2 2 2.3 0 1.4-1.1 2.3-2.9 2.3-.8 0-1.6-.2-2.2-.5l.3-1.1z" fill="#fff" stroke="#fff" stroke-width=".5" stroke-miterlimit="10"/></svg>